<?xml version="1.0" encoding="utf-8"?>
<!-- Generator: Adobe Illustrator 19.2.0, SVG Export Plug-In . SVG Version: 6.00 Build 0)  -->
<svg version="1.1" id="Layer_1" xmlns="http://www.w3.org/2000/svg" xmlns:xlink="http://www.w3.org/1999/xlink" x="0px" y="0px"
	 width="190px" height="46.8px" viewBox="0 0 190 46.8" style="enable-background:new 0 0 190 46.8;" xml:space="preserve">
<style type="text/css">
	.st0{stroke:#000000;stroke-miterlimit:10;}
	.st1{fill:#E12326;stroke:#E12326;stroke-miterlimit:10;}
	.st2{fill:#54A8BE;}
	.st3{fill:#E12326;}
</style>
<g>
	<path class="st0" d="M63.2,2.1v0.7c-0.6,0.1-1.1,0.3-1.5,0.5c-0.4,0.2-0.7,0.5-1.1,0.8c-0.3,0.3-0.6,0.7-0.8,1.1
		c-0.2,0.4-0.5,1-0.7,1.5l-9.4,22.9H49L37.2,6.5c-0.3-0.7-0.6-1.3-0.8-1.8c-0.2-0.4-0.5-0.8-0.8-1.1c-0.3-0.3-0.7-0.4-1.1-0.5
		c-0.4-0.1-0.9-0.2-1.6-0.3V2.1h11v0.7c-0.6,0.1-1.1,0.1-1.5,0.3c-0.4,0.1-0.7,0.2-0.9,0.4c-0.2,0.2-0.3,0.3-0.4,0.5
		C41,4.2,41,4.4,41,4.6c0,0.7,0.3,1.7,0.9,3.1l8.5,15.8l6.4-15.6c0.6-1.5,1-2.6,1-3.2c0-0.4-0.2-0.8-0.7-1.2
		c-0.4-0.4-1.2-0.6-2.2-0.8V2.1H63.2z"/>
	<path class="st0" d="M80.1,20H69.6l-1.8,4.2c-0.4,1-0.7,1.8-0.7,2.3c0,0.2,0,0.4,0.1,0.6c0.1,0.2,0.2,0.3,0.4,0.5
		c0.2,0.1,0.5,0.3,0.9,0.4c0.4,0.1,0.9,0.2,1.6,0.2v0.7h-8.5v-0.7c0.7-0.1,1.2-0.2,1.6-0.4c0.4-0.2,0.8-0.5,1.1-0.8
		c0.3-0.3,0.6-0.8,0.8-1.4c0.2-0.6,0.5-1.2,0.9-2l9.5-22.2h0.7l9.4,22.4c0.4,0.9,0.7,1.7,1.1,2.2c0.3,0.6,0.7,1,1,1.3
		c0.3,0.3,0.7,0.5,1.1,0.7c0.4,0.1,0.9,0.2,1.5,0.2v0.7H79.8v-0.7c1.1,0,1.8-0.2,2.2-0.5c0.4-0.3,0.6-0.7,0.6-1.1
		c0-0.6-0.3-1.5-0.8-2.8L80.1,20z M79.5,18.6L75,7.7l-4.7,10.9H79.5z"/>
	<path class="st0" d="M120.3,21.6l0.7,0.1l-2.3,7.3H97.7v-0.7h1c1.1,0,1.9-0.4,2.4-1.1c0.3-0.4,0.4-1.4,0.4-2.9V6.9
		c0-1.7-0.2-2.7-0.6-3.1c-0.5-0.6-1.3-0.9-2.3-0.9h-1V2.1H110v0.7c-0.7,0-1.3,0-1.8,0.1c-0.5,0.1-0.9,0.2-1.2,0.3
		c-0.3,0.1-0.6,0.3-0.7,0.5c-0.2,0.2-0.3,0.4-0.4,0.6c-0.2,0.4-0.3,1.4-0.3,3.1v16.9c0,0.9,0.1,1.6,0.2,2c0.1,0.4,0.4,0.7,0.8,0.9
		c0.4,0.1,1.4,0.2,3.1,0.2h2c2.1,0,3.5-0.1,4.4-0.4c0.4-0.1,0.8-0.3,1.2-0.6c0.4-0.3,0.7-0.6,1.1-1c0.4-0.4,0.7-0.9,1-1.5
		C119.6,23.2,119.9,22.5,120.3,21.6z"/>
	<path class="st0" d="M136.4,3.6v10.7h5.9c0.9,0,1.6-0.1,2.1-0.2c0.5-0.2,1-0.4,1.3-0.7c0.3-0.3,0.5-0.7,0.6-1.2
		c0.1-0.5,0.2-1.1,0.2-1.8h0.7v9.4h-0.7c-0.1-0.8-0.2-1.4-0.3-1.9c-0.1-0.5-0.3-0.9-0.6-1.2c-0.3-0.3-0.7-0.5-1.2-0.7
		c-0.5-0.1-1.2-0.2-2.1-0.2h-5.9v8.9c0,0.7,0,1.2,0,1.6c0,0.4,0.1,0.7,0.2,0.9c0.1,0.2,0.4,0.3,0.7,0.4c0.3,0.1,0.7,0.1,1.3,0.1h4.6
		c0.8,0,1.4,0,2-0.1c0.5,0,1-0.1,1.4-0.2c0.4-0.1,0.7-0.3,1-0.5c0.3-0.2,0.6-0.5,0.9-0.8c0.8-0.8,1.6-2,2.5-3.7h0.8l-2.3,6.8h-20.8
		v-0.7h0.9c0.3,0,0.5,0,0.8-0.1c0.3-0.1,0.5-0.1,0.8-0.3c0.2-0.1,0.5-0.3,0.7-0.4c0.2-0.2,0.3-0.4,0.4-0.6c0.2-0.4,0.2-1.3,0.2-2.6
		V6.8c0-1.7-0.2-2.8-0.5-3.2c-0.5-0.5-1.3-0.8-2.4-0.8h-0.9V2.1h20.8V8H149c-0.2-1-0.4-1.7-0.6-2.3c-0.2-0.6-0.5-1-0.9-1.4
		c-0.4-0.3-0.9-0.5-1.4-0.6c-0.6-0.1-1.3-0.1-2.2-0.1H136.4z"/>
	<path class="st1" d="M175.5,14.1l5.8,8.6c0.8,1.2,1.5,2.2,2.1,2.9c0.5,0.7,1,1.3,1.5,1.6c0.5,0.4,0.9,0.6,1.4,0.8
		c0.4,0.1,1,0.2,1.6,0.2v0.7h-11.6v-0.7c1.1,0,1.8-0.2,2.2-0.5c0.3-0.3,0.5-0.8,0.5-1.3c0-0.1,0-0.2,0-0.3c0-0.1-0.1-0.2-0.2-0.4
		c-0.1-0.2-0.2-0.4-0.4-0.6c-0.2-0.3-0.4-0.6-0.7-1l-4.6-6.9l-5.7,7.2c-0.3,0.4-0.6,0.7-0.7,0.9c-0.2,0.2-0.3,0.4-0.4,0.6
		c-0.1,0.2-0.1,0.3-0.1,0.4c0,0.1,0,0.2,0,0.4c0,0.4,0.2,0.8,0.5,1c0.4,0.3,1,0.4,2,0.5v0.7h-9.6v-0.7c0.7,0,1.3-0.2,1.8-0.4
		c0.6-0.2,1.1-0.5,1.6-0.9c0.5-0.4,1-0.8,1.6-1.4c0.5-0.5,1-1.2,1.6-1.9l6.4-8L166.8,8c-0.7-1.1-1.4-1.9-2-2.6
		c-0.6-0.7-1.1-1.2-1.7-1.5c-0.5-0.4-1.1-0.6-1.6-0.8c-0.6-0.1-1.2-0.2-1.8-0.3V2.1h12.5v0.7c-1,0-1.8,0.2-2.2,0.5
		c-0.4,0.3-0.6,0.6-0.6,1c0,0.5,0.3,1.2,0.9,2.1l4.2,6.2l4.8-6.1c0.3-0.4,0.5-0.7,0.7-0.9c0.2-0.2,0.3-0.4,0.4-0.6
		c0.1-0.1,0.1-0.3,0.1-0.4c0-0.1,0-0.3,0-0.4c0-0.6-0.2-1-0.6-1.2c-0.4-0.2-1.2-0.3-2.2-0.4V2.1h9.6v0.7c-0.9,0.1-1.6,0.2-2.2,0.5
		c-0.6,0.3-1.1,0.6-1.6,1.1c-0.6,0.5-1.4,1.4-2.5,2.8L175.5,14.1z"/>
</g>
<g>
	<g>
		<path class="st2" d="M58,43.2h-1.1v-3.8c0-0.7-0.1-1.3-0.3-1.6c-0.2-0.3-0.6-0.5-1.1-0.5c-0.5,0-0.8,0.2-1.2,0.6
			c-0.3,0.4-0.5,0.9-0.5,1.5v3.8h-1.1v-3.9c0-1.3-0.5-1.9-1.5-1.9c-0.5,0-0.8,0.2-1.2,0.6c-0.3,0.4-0.5,0.9-0.5,1.5v3.8h-1.1v-6.6
			h1.1v1h0c0.5-0.8,1.2-1.2,2.1-1.2c0.5,0,0.8,0.1,1.2,0.4c0.3,0.3,0.6,0.6,0.7,1c0.5-0.9,1.2-1.4,2.2-1.4c1.5,0,2.2,0.9,2.2,2.7
			V43.2z"/>
		<path class="st2" d="M64.7,43.2h-1.1v-1h0c-0.5,0.8-1.1,1.2-2,1.2c-0.7,0-1.2-0.2-1.5-0.5c-0.4-0.3-0.6-0.8-0.6-1.4
			c0-1.2,0.7-1.9,2.2-2.1l2-0.3c0-1.1-0.5-1.7-1.4-1.7c-0.8,0-1.5,0.3-2.2,0.8v-1.1c0.7-0.4,1.4-0.6,2.2-0.6c1.6,0,2.3,0.8,2.3,2.5
			V43.2z M63.6,39.9L62,40.1c-0.5,0.1-0.9,0.2-1.1,0.4c-0.3,0.2-0.4,0.5-0.4,0.9c0,0.3,0.1,0.6,0.3,0.8c0.2,0.2,0.5,0.3,0.9,0.3
			c0.5,0,1-0.2,1.3-0.5c0.3-0.4,0.5-0.8,0.5-1.4V39.9z"/>
		<path class="st2" d="M72.2,43.2h-1.1v-3.8c0-1.4-0.5-2.1-1.5-2.1c-0.5,0-1,0.2-1.3,0.6c-0.3,0.4-0.5,0.9-0.5,1.5v3.8h-1.1v-6.6
			h1.1v1.1h0c0.5-0.8,1.2-1.2,2.2-1.2c0.7,0,1.3,0.2,1.7,0.7c0.4,0.5,0.6,1.1,0.6,2V43.2z"/>
		<path class="st2" d="M78.9,43.2h-1.1v-1h0c-0.5,0.8-1.1,1.2-2,1.2c-0.7,0-1.2-0.2-1.5-0.5c-0.4-0.3-0.6-0.8-0.6-1.4
			c0-1.2,0.7-1.9,2.2-2.1l2-0.3c0-1.1-0.5-1.7-1.4-1.7c-0.8,0-1.5,0.3-2.2,0.8v-1.1c0.7-0.4,1.4-0.6,2.2-0.6c1.6,0,2.3,0.8,2.3,2.5
			V43.2z M77.9,39.9l-1.6,0.2c-0.5,0.1-0.9,0.2-1.1,0.4c-0.3,0.2-0.4,0.5-0.4,0.9c0,0.3,0.1,0.6,0.3,0.8c0.2,0.2,0.5,0.3,0.9,0.3
			c0.5,0,1-0.2,1.3-0.5c0.3-0.4,0.5-0.8,0.5-1.4V39.9z"/>
		<path class="st2" d="M86.6,42.7c0,2.4-1.2,3.6-3.5,3.6c-0.8,0-1.5-0.2-2.1-0.5v-1.1c0.7,0.4,1.5,0.6,2.1,0.6
			c1.6,0,2.4-0.9,2.4-2.6v-0.7h0c-0.5,0.8-1.3,1.3-2.3,1.3c-0.8,0-1.5-0.3-2-0.9c-0.5-0.6-0.8-1.4-0.8-2.4c0-1.1,0.3-2,0.8-2.7
			c0.5-0.7,1.3-1,2.2-1c0.9,0,1.6,0.4,2,1.1h0v-0.9h1.1V42.7z M85.5,40.2v-1c0-0.5-0.2-1-0.5-1.3c-0.4-0.4-0.8-0.6-1.3-0.6
			c-0.7,0-1.2,0.2-1.5,0.7c-0.4,0.5-0.6,1.1-0.6,2c0,0.7,0.2,1.3,0.5,1.8c0.4,0.4,0.8,0.7,1.4,0.7c0.6,0,1.1-0.2,1.5-0.6
			C85.3,41.4,85.5,40.9,85.5,40.2z"/>
		<path class="st2" d="M94,40.2h-4.7c0,0.7,0.2,1.3,0.6,1.7c0.4,0.4,0.9,0.6,1.6,0.6c0.7,0,1.4-0.2,2.1-0.7v1
			c-0.6,0.4-1.4,0.6-2.3,0.6c-0.9,0-1.7-0.3-2.2-0.9c-0.5-0.6-0.8-1.4-0.8-2.5c0-1,0.3-1.9,0.9-2.5c0.6-0.6,1.3-1,2.2-1
			s1.5,0.3,2,0.8c0.5,0.6,0.7,1.3,0.7,2.3V40.2z M93,39.3c0-0.6-0.2-1.1-0.4-1.4c-0.3-0.3-0.7-0.5-1.2-0.5c-0.5,0-0.9,0.2-1.3,0.5
			c-0.3,0.4-0.6,0.8-0.6,1.4H93z"/>
		<path class="st2" d="M105,43.2H104v-3.8c0-0.7-0.1-1.3-0.3-1.6c-0.2-0.3-0.6-0.5-1.1-0.5c-0.5,0-0.8,0.2-1.2,0.6
			c-0.3,0.4-0.5,0.9-0.5,1.5v3.8h-1.1v-3.9c0-1.3-0.5-1.9-1.5-1.9c-0.5,0-0.8,0.2-1.2,0.6s-0.5,0.9-0.5,1.5v3.8h-1.1v-6.6h1.1v1h0
			c0.5-0.8,1.2-1.2,2.1-1.2c0.5,0,0.8,0.1,1.2,0.4c0.3,0.3,0.6,0.6,0.7,1c0.5-0.9,1.2-1.4,2.2-1.4c1.5,0,2.2,0.9,2.2,2.7V43.2z"/>
		<path class="st2" d="M112.4,40.2h-4.7c0,0.7,0.2,1.3,0.6,1.7s0.9,0.6,1.6,0.6c0.7,0,1.4-0.2,2.1-0.7v1c-0.6,0.4-1.4,0.6-2.3,0.6
			c-0.9,0-1.7-0.3-2.2-0.9c-0.5-0.6-0.8-1.4-0.8-2.5c0-1,0.3-1.9,0.9-2.5c0.6-0.6,1.3-1,2.2-1c0.9,0,1.5,0.3,2,0.8
			c0.5,0.6,0.7,1.3,0.7,2.3V40.2z M111.3,39.3c0-0.6-0.2-1.1-0.4-1.4c-0.3-0.3-0.7-0.5-1.2-0.5c-0.5,0-0.9,0.2-1.3,0.5
			c-0.3,0.4-0.6,0.8-0.6,1.4H111.3z"/>
		<path class="st2" d="M119.5,43.2h-1.1v-3.8c0-1.4-0.5-2.1-1.5-2.1c-0.5,0-1,0.2-1.3,0.6c-0.3,0.4-0.5,0.9-0.5,1.5v3.8H114v-6.6
			h1.1v1.1h0c0.5-0.8,1.2-1.2,2.2-1.2c0.7,0,1.3,0.2,1.7,0.7c0.4,0.5,0.6,1.1,0.6,2V43.2z"/>
		<path class="st2" d="M124.5,43.1c-0.3,0.1-0.6,0.2-1,0.2c-1.2,0-1.7-0.6-1.7-1.9v-3.9h-1.1v-0.9h1.1V35l1.1-0.3v1.9h1.7v0.9h-1.7
			v3.7c0,0.4,0.1,0.8,0.2,0.9c0.2,0.2,0.4,0.3,0.7,0.3c0.3,0,0.5-0.1,0.7-0.2V43.1z"/>
		<path class="st2" d="M134.1,42.9c-0.5,0.3-1.1,0.5-1.8,0.5c-0.9,0-1.7-0.3-2.3-0.9c-0.6-0.6-0.9-1.4-0.9-2.4c0-1.1,0.3-2,0.9-2.6
			c0.6-0.7,1.5-1,2.5-1c0.6,0,1.1,0.1,1.5,0.3v1.1c-0.5-0.3-1-0.5-1.6-0.5c-0.7,0-1.2,0.2-1.7,0.7c-0.4,0.5-0.6,1.1-0.6,1.9
			c0,0.8,0.2,1.4,0.6,1.8c0.4,0.4,1,0.7,1.6,0.7c0.6,0,1.1-0.2,1.6-0.6V42.9z"/>
		<path class="st2" d="M138.5,43.3c-1,0-1.8-0.3-2.3-0.9c-0.6-0.6-0.9-1.4-0.9-2.4c0-1.1,0.3-2,0.9-2.6c0.6-0.6,1.4-0.9,2.5-0.9
			c1,0,1.8,0.3,2.3,0.9c0.6,0.6,0.8,1.4,0.8,2.5c0,1.1-0.3,1.9-0.9,2.5C140.3,43,139.5,43.3,138.5,43.3z M138.5,37.3
			c-0.7,0-1.2,0.2-1.6,0.7c-0.4,0.5-0.6,1.1-0.6,1.9c0,0.8,0.2,1.4,0.6,1.8c0.4,0.4,0.9,0.7,1.6,0.7c0.7,0,1.2-0.2,1.6-0.7
			c0.4-0.4,0.6-1.1,0.6-1.9c0-0.8-0.2-1.5-0.6-1.9C139.8,37.6,139.2,37.3,138.5,37.3z"/>
		<path class="st2" d="M149,43.2h-1.1v-3.8c0-1.4-0.5-2.1-1.5-2.1c-0.5,0-1,0.2-1.3,0.6c-0.3,0.4-0.5,0.9-0.5,1.5v3.8h-1.1v-6.6h1.1
			v1.1h0c0.5-0.8,1.2-1.2,2.2-1.2c0.7,0,1.3,0.2,1.7,0.7c0.4,0.5,0.6,1.1,0.6,2V43.2z"/>
		<path class="st2" d="M150.5,42.9v-1.1c0.6,0.4,1.2,0.6,1.9,0.6c0.9,0,1.4-0.3,1.4-0.9c0-0.2,0-0.3-0.1-0.4
			c-0.1-0.1-0.2-0.2-0.3-0.3c-0.1-0.1-0.3-0.2-0.5-0.3c-0.2-0.1-0.4-0.2-0.6-0.2c-0.3-0.1-0.6-0.2-0.8-0.4c-0.2-0.1-0.4-0.3-0.6-0.4
			c-0.1-0.1-0.3-0.3-0.3-0.5s-0.1-0.4-0.1-0.7c0-0.3,0.1-0.6,0.2-0.8c0.1-0.2,0.3-0.4,0.6-0.6c0.2-0.2,0.5-0.3,0.8-0.4
			c0.3-0.1,0.6-0.1,0.9-0.1c0.6,0,1.1,0.1,1.5,0.3v1.1c-0.5-0.3-1-0.5-1.7-0.5c-0.2,0-0.4,0-0.5,0.1c-0.2,0-0.3,0.1-0.4,0.2
			c-0.1,0.1-0.2,0.2-0.3,0.3c-0.1,0.1-0.1,0.2-0.1,0.4c0,0.2,0,0.3,0.1,0.4c0.1,0.1,0.2,0.2,0.3,0.3c0.1,0.1,0.3,0.2,0.4,0.2
			c0.2,0.1,0.4,0.2,0.6,0.2c0.3,0.1,0.6,0.2,0.8,0.3c0.2,0.1,0.4,0.3,0.6,0.4c0.2,0.1,0.3,0.3,0.4,0.5c0.1,0.2,0.1,0.4,0.1,0.7
			c0,0.3-0.1,0.6-0.2,0.8c-0.1,0.2-0.3,0.4-0.6,0.6c-0.2,0.2-0.5,0.3-0.8,0.4c-0.3,0.1-0.6,0.1-1,0.1
			C151.6,43.3,151,43.2,150.5,42.9z"/>
		<path class="st2" d="M161.9,43.2h-1.1v-1h0c-0.4,0.8-1.1,1.2-2,1.2c-1.6,0-2.4-0.9-2.4-2.8v-3.9h1.1v3.8c0,1.4,0.5,2.1,1.6,2.1
			c0.5,0,0.9-0.2,1.3-0.6c0.3-0.4,0.5-0.9,0.5-1.5v-3.8h1.1V43.2z"/>
		<path class="st2" d="M165.1,43.2h-1.1v-9.7h1.1V43.2z"/>
		<path class="st2" d="M170.3,43.1c-0.3,0.1-0.6,0.2-1,0.2c-1.2,0-1.7-0.6-1.7-1.9v-3.9h-1.1v-0.9h1.1V35l1.1-0.3v1.9h1.7v0.9h-1.7
			v3.7c0,0.4,0.1,0.8,0.2,0.9c0.2,0.2,0.4,0.3,0.7,0.3c0.3,0,0.5-0.1,0.7-0.2V43.1z"/>
		<path class="st2" d="M172.3,34.9c-0.2,0-0.4-0.1-0.5-0.2c-0.1-0.1-0.2-0.3-0.2-0.5c0-0.2,0.1-0.4,0.2-0.5c0.1-0.1,0.3-0.2,0.5-0.2
			c0.2,0,0.4,0.1,0.5,0.2c0.1,0.1,0.2,0.3,0.2,0.5c0,0.2-0.1,0.3-0.2,0.5C172.7,34.9,172.5,34.9,172.3,34.9z M172.8,43.2h-1.1v-6.6
			h1.1V43.2z"/>
		<path class="st2" d="M180.5,43.2h-1.1v-3.8c0-1.4-0.5-2.1-1.5-2.1c-0.5,0-1,0.2-1.3,0.6c-0.3,0.4-0.5,0.9-0.5,1.5v3.8H175v-6.6
			h1.1v1.1h0c0.5-0.8,1.2-1.2,2.2-1.2c0.7,0,1.3,0.2,1.7,0.7c0.4,0.5,0.6,1.1,0.6,2V43.2z"/>
		<path class="st2" d="M188.1,42.7c0,2.4-1.2,3.6-3.5,3.6c-0.8,0-1.5-0.2-2.1-0.5v-1.1c0.7,0.4,1.5,0.6,2.1,0.6
			c1.6,0,2.4-0.9,2.4-2.6v-0.7h0c-0.5,0.8-1.3,1.3-2.3,1.3c-0.8,0-1.5-0.3-2-0.9c-0.5-0.6-0.8-1.4-0.8-2.4c0-1.1,0.3-2,0.8-2.7
			c0.5-0.7,1.3-1,2.2-1c0.9,0,1.6,0.4,2,1.1h0v-0.9h1.1V42.7z M187,40.2v-1c0-0.5-0.2-1-0.5-1.3c-0.4-0.4-0.8-0.6-1.3-0.6
			c-0.7,0-1.2,0.2-1.5,0.7c-0.4,0.5-0.6,1.1-0.6,2c0,0.7,0.2,1.3,0.5,1.8c0.4,0.4,0.8,0.7,1.4,0.7c0.6,0,1.1-0.2,1.5-0.6
			C186.9,41.4,187,40.9,187,40.2z"/>
	</g>
</g>
<polygon class="st2" points="29.5,13.3 44.2,43.4 38.2,43.4 26.5,19.1 "/>
<polygon class="st3" points="34.3,43.4 1.1,43.4 22.5,1.3 25.8,8 11.1,37.4 31.3,37.4 "/>
</svg>
